<svg xmlns="http://www.w3.org/2000/svg" xmlns:xlink="http://www.w3.org/1999/xlink" version="1.1">
<g transform="translate(10,10)">
    <g transform="translate(20,80)">
        <rect x="0.5" y="0.5" width="26" height="196" rx="4" ry="4" stroke-width="0" fill="#FFFFFF" stroke="0" fill-opacity="0.15" stroke-opacity="0" transform="translate(-3,-3)"></rect>
        <g>
            <rect x="0.5" y="0.5" width="20" height="20" rx="2" ry="2" stroke-width="1" fill="#f15135" stroke="#FFFFFF" fill-opacity="0.8" stroke-opacity="0"></rect>
            <image x="4.5" y="4.5" width="11" height="11" xlink:href="http://www.amcharts.com/lib/3/images/plus.gif" opacity="0.6"></image>
        </g>
        <g transform="translate(0,170)">
            <rect x="0.5" y="0.5" width="20" height="20" rx="2" ry="2" stroke-width="1" fill="#f15135" stroke="#FFFFFF" fill-opacity="0.8" stroke-opacity="0"></rect>
            <image x="4.5" y="4.5" width="11" height="11" xlink:href="http://www.amcharts.com/lib/3/images/minus.gif" opacity="0.6"></image>
        </g>
        <path cs="100,100" d="M1.5,41.5 L18.5,41.5" fill="none" stroke-width="1" stroke-opacity="0.2" stroke="#FFFFFF"></path>
        <path cs="100,100" d="M1.5,63.5 L18.5,63.5" fill="none" stroke-width="1" stroke-opacity="0.2" stroke="#FFFFFF"></path>
        <path cs="100,100" d="M1.5,84.5 L18.5,84.5" fill="none" stroke-width="1" stroke-opacity="0.2" stroke="#FFFFFF"></path>
        <path cs="100,100" d="M1.5,106.5 L18.5,106.5" fill="none" stroke-width="1" stroke-opacity="0.2" stroke="#FFFFFF"></path>
        <path cs="100,100" d="M1.5,127.5 L18.5,127.5" fill="none" stroke-width="1" stroke-opacity="0.2" stroke="#FFFFFF"></path>
        <path cs="100,100" d="M1.5,149.5 L18.5,149.5" fill="none" stroke-width="1" stroke-opacity="0.2" stroke="#FFFFFF"></path>
        <g transform="translate(0,149)">
            <rect x="0.5" y="0.5" width="20" height="21" rx="2" ry="2" stroke-width="1" fill="#f15135" stroke="#FFFFFF" fill-opacity="0.8" stroke-opacity="0"></rect>
        </g>
    </g>
    <g>
        <g transform="translate(0,20)">
            <rect x="0.5" y="0.5" width="20" height="20" rx="2" ry="2" stroke-width="1" fill="#f15135" stroke="#FFFFFF" fill-opacity="0.8" stroke-opacity="0"></rect>
            <image x="4.5" y="4.5" width="11" height="11" xlink:href="http://www.amcharts.com/lib/3/images/panLeft.gif" opacity="0.6"></image>
        </g>
        <g transform="translate(40,20)">
            <rect x="0.5" y="0.5" width="20" height="20" rx="2" ry="2" stroke-width="1" fill="#f15135" stroke="#FFFFFF" fill-opacity="0.8" stroke-opacity="0"></rect>
            <image x="4.5" y="4.5" width="11" height="11" xlink:href="http://www.amcharts.com/lib/3/images/panRight.gif" opacity="0.6"></image>
        </g>
        <g transform="translate(20,0)">
            <rect x="0.5" y="0.5" width="20" height="20" rx="2" ry="2" stroke-width="1" fill="#f15135" stroke="#FFFFFF" fill-opacity="0.8" stroke-opacity="0"></rect>
            <image x="4.5" y="4.5" width="11" height="11" xlink:href="http://www.amcharts.com/lib/3/images/panUp.gif" opacity="0.6"></image>
        </g>
        <g transform="translate(20,40)">
            <rect x="0.5" y="0.5" width="20" height="20" rx="2" ry="2" stroke-width="1" fill="#f15135" stroke="#FFFFFF" fill-opacity="0.8" stroke-opacity="0"></rect>
            <image x="4.5" y="4.5" width="11" height="11" xlink:href="http://www.amcharts.com/lib/3/images/panDown.gif" opacity="0.6"></image>
        </g>
        <g transform="translate(20,20)">
            <rect x="0.5" y="0.5" width="20" height="20" rx="2" ry="2" stroke-width="0" fill="#f15135" stroke="#FFFFFF" fill-opacity="0" stroke-opacity="0"></rect>
            <image x="4.5" y="4.5" width="11" height="11" xlink:href="http://www.amcharts.com/lib/3/images/homeIconWhite.gif" opacity="0.6"></image>
        </g>
    </g>
</g>
</svg>